<?xml version="1.0" encoding="utf-8"?>
<!-- Generator: Adobe Illustrator 19.0.0, SVG Export Plug-In . SVG Version: 6.00 Build 0)  -->
<svg version="1.1" id="Layer_1" xmlns="http://www.w3.org/2000/svg" xmlns:xlink="http://www.w3.org/1999/xlink" x="0px" y="0px"
	 viewBox="0 0 500 500" style="enable-background:new 0 0 500 500;" xml:space="preserve">
<style type="text/css">
	.st0{fill:#8D8E92;}
	.st1{fill:#C4222F;}
</style>
<g id="XMLID_20_">
	<path id="XMLID_22_" class="st0" d="M276.1,176.5c-2.5,0.1-4.6,1.9-5,4.4c0,0-17.2,110.8-18.9,110.8c-1.8,0-19.5-83.2-19.5-83.2
		c-0.5-2.2-2.4-3.9-4.7-4.1c-2.3-0.2-4.4,1.1-5.3,3.2l-17.7,40.8h-10.1c-2.1-4.4-6.5-7.4-11.7-7.4c-7.2,0-13,5.8-13,13
		c0,7.2,5.8,13,13,13c5.4,0,10-3.3,12-7.9h13.3c2.1,0,4-1.3,4.9-3.2c0,0,11.5-29.3,12.7-29.3c1.3,0,21.8,93.2,21.8,93.2
		c0.6,2.4,2.7,4.1,5.2,4.1c2.7-0.1,4.8-1.9,5.2-4.4c0,0,17.7-112.4,19.2-112.4s19.3,73.8,19.3,73.8c0.6,2.2,2.6,3.8,4.9,4
		c2.3,0.1,4.4-1.3,5.2-3.4l14-37.5l9.4,14.4c0.8-6.7,0.6-13.5-0.5-20.3l-5.6-8.8c-1.1-1.7-3-2.6-5-2.4c-2,0.2-3.7,1.5-4.4,3.4
		l-11.9,31.8l-21.2-81.4c-0.6-2.3-2.8-4-5.1-4L276.1,176.5z"/>
	<path id="XMLID_28_" class="st1" d="M250,369.8c-65.9,0-119.3-53.7-119.3-120c0-66.3,53.4-120,119.3-120s119.3,53.7,119.3,120
		C369.3,316.1,315.9,369.8,250,369.8 M250,73.6c-100.8,0-182.5,79-182.5,176.4c0,97.4,81.7,176.4,182.5,176.4
		c100.8,0,182.5-79,182.5-176.4C432.5,152.6,350.8,73.6,250,73.6"/>
</g>
</svg>
